<?xml version="1.0" encoding="UTF-8"?>
<svg id="Calque_2" data-name="Calque 2" xmlns="http://www.w3.org/2000/svg" viewBox="0 0 956.27 189.36">
  <defs>
    <style>
      .cls-1 {
        fill: #394c38;
      }
    </style>
  </defs>
  <g id="Calque_1-2" data-name="Calque 1">
    <g>
      <path class="cls-1" d="M116.25,189.36c-2.07,0-4.52-1.44-4.9-5.58v-.28s-.01-38.42-.01-38.42c-9.03-.74-17.91-4.9-25.96-12.18-8.99,5.82-20.07,7.03-30.25,7.4v45.01c0,1.88-1.51,3.9-4.81,3.9s-4.81-2.02-4.81-3.9v-44.96c-.33,0-.66,0-.9,0-.79.01-1.53.03-2.19-.07-13.92-2.01-27.28-11.56-34.88-24.92-18.63-32.79-.06-76.86,26.85-101.67.15-.14,15.54-13.69,19.84-13.7h.02c5.81,0,21.48,19.67,21.64,19.87,5.57,7.15,10.21,14.72,13.86,22.55,7.1-8.71,13.84-15.76,22.14-21.34.79-.53,1.48-1.06,2.09-1.52,3.53-2.69,6.25-4.11,11.67.37h0c12.9,10.71,24.7,28.25,31.55,46.92,7.62,20.76,8.51,40.63,2.52,55.95-7.55,19.3-23.15,21.27-38.74,22.24v40.27c0,2.26-2.37,3.95-4.51,4.05-.07,0-.14,0-.2,0ZM117.48,184.01h0,0ZM120.96,111.71v23.63c18.74-.3,27.55-6.28,31.24-20.98h0c5.45-21.73-3.59-58.62-28.16-82.76-.5-.5-3.14-2.88-4.56-4.11-2.34,1.48-8.58,6.5-10.7,8.42-3.96,3.59-13.52,14.23-14.43,16.95.13,1.21,1.55,5.33,2.4,7.83.84,2.44,1.63,4.74,1.97,6.19,2.96,12.42,3.76,24.88,2.38,37.06,1.42,1.91,6.56,6.45,10.2,9.19,0-2.79.02-5.58.05-8.31.04-4.44.08-9.03,0-13.51,0-.42-.1-1.56-.21-2.76-.98-11.34-1-16.41,2.87-17.38,1.49-.37,3.64-.31,5.24.93,1.09.86,1.7,2.1,1.7,3.51v21.71l10.75-11.35.24-.17c1.41-1,3.23-1.08,4.86-.23,1.77.93,2.9,2.71,2.89,4.54,0,1.67,0,2.12-13.99,16.64-1.9,1.97-3.72,3.86-4.75,4.97ZM92.45,126.09c5.4,5.1,11.95,8.31,18.89,9.25v-10.55c-.79-.54-1.58-1.08-2.36-1.61-3.69-2.5-7.48-5.07-10.89-8.23-.12.29-.24.58-.36.87-1.43,3.5-2.9,7.09-5.28,10.27ZM53.91,10.62c-2.78,1.89-9.94,7.63-11.54,9.05C21.78,38.13,3.44,71.45,11.84,101c3.97,13.97,17.42,28.28,33.67,29.66v-12.46c-.39-.25-.78-.51-1.17-.77-6.91-4.53-14.74-9.67-20.18-16.08l-.07-.08c-2.33-2.75-4.98-5.87-3.25-8.8,1.6-2.72,5.29-1.98,6.51-1.73l1.09.22.68.88c3.11,4.01,6.91,7.78,11.28,11.21,1.26.99,3.09,2.32,4.74,3.44-.43-7.92-.34-15.89-.26-23.65.06-5.74.12-11.67-.02-17.46v-.08s0-.07,0-.07c.08-3.09,2.38-5.62,5.15-5.65,2.1.02,4.39,1.53,4.54,4.99l.46,25.46c1.72-1.81,3.4-3.71,5.13-5.66,2.25-2.54,4.58-5.17,7.05-7.64l.21-.21.24-.16c2.69-1.81,5.48-.93,6.84.86,1.63,2.15,1.21,5.18-.95,7.14l-18.41,19.53v26.7c17.32-.92,28.37-3.29,33.9-18.79,9.42-26.43-3.22-63.07-20.58-85.61-2.7-3.5-11.35-13.2-14.55-15.6Z"/>
      <path class="cls-1" d="M262.95,53.2l4.8,15.04c-6.11,2.32-12.48,2.66-19.84,2.72,31,13.61,2.07,49.23-23.86,40.01-4.92,3.71-1.38,9.08,5.32,8.17,23.19-5.91,53.59,16.97,28.27,36.57-15.37,9.07-62.46,12.37-60.88-16.01h18.15c-1.4,14.63,41.91,10.83,29.24-4.16-3.1-2.89-14.18-1.62-18.54-1.88-18.55,2.31-29.27-16.57-13.49-26.77-18.27-8.12-15.21-35.27,2.56-41.76,15.4-5.38,34.62-1.15,48.28-11.93ZM231.11,75.37c-14.17-.81-14,24.16,0,23.34,13.96,1.12,14.39-24.76,0-23.34Z"/>
      <path class="cls-1" d="M309.44,61.95c44.62-2.56,44.65,76.09,0,73.33-44.78,2.83-44.46-75.67,0-73.33ZM309.44,77.06c-17.36-.22-17.34,43.46,0,43.17,17.3.32,17.4-43.4,0-43.17Z"/>
      <path class="cls-1" d="M387.24,61.95c44.62-2.56,44.65,76.09,0,73.33-44.78,2.83-44.46-75.67,0-73.33ZM387.24,77.06c-17.36-.22-17.34,43.46,0,43.17,17.3.32,17.4-43.4,0-43.17Z"/>
      <path class="cls-1" d="M474.38,34.72l20.49,2.13v96.22h-18.15l-1.04-7.59c-55.27,49.63-60.78-95.98-1.3-57.19v-33.58ZM464.26,76.92c-22.82,1.45-10.95,65.62,10.12,35.34v-29.7c-2.8-3.37-5.67-5.66-10.12-5.65Z"/>
      <path class="cls-1" d="M549.1,34.72c8.77-.03,16.31,1.29,23.6,4.34l-5.64,13.36c-15.5-5.81-29.93-3.44-26.13,16.15h22.43l-2.27,14.19h-20.16v50.32h-20.36v-50.32h-14.46v-14.19h14.46c-2.98-18.69,7.87-35.22,28.53-33.84Z"/>
      <path class="cls-1" d="M612.9,61.95c44.62-2.56,44.65,76.09,0,73.33-44.78,2.83-44.46-75.67,0-73.33ZM612.9,77.06c-17.36-.22-17.34,43.46,0,43.17,17.3.32,17.4-43.4,0-43.17Z"/>
      <path class="cls-1" d="M661.52,133.07v-13.75h9.08v-41.5h-9.08v-13.61h24.71l3.76,15.49c5.29-15.27,20.53-21.28,34.82-15.49l-6.22,16.93c-22.84-7.56-30.22,20.83-27.49,38.18h13.61v13.75h-43.18ZM708.14,93c-.13-6.42-.68-23.24,3.05-28.79h13.61l-3.83,28.79h-12.84Z"/>
      <path class="cls-1" d="M756.44,104.61c.97,18.55,22.33,18.77,34.17,10.05l8.24,11.15c-31.99,27.52-79.05-7.06-59.39-45.61,17.23-35.83,71.41-14.3,61.59,24.41h-44.61ZM769.15,75.7c-9.17.32-12.1,7.04-12.97,16.59h25.29c-.23-8.86-2.63-16.6-12.32-16.59Z"/>
      <path class="cls-1" d="M844.1,120.62c35.67-8.97-18.84-16.43-23.57-27.22-15.07-32.27,36.78-39.24,55.08-23.08l-8.17,12.05c-6.11-5.05-33.11-11.55-27.72,2.5,9.1,6.53,27.53,6.08,34.33,16.79,15.82,35.07-41.92,42.48-60.5,23.25l10.31-11.55c5.7,4.36,12.65,7.36,20.23,7.26Z"/>
      <path class="cls-1" d="M956.27,129.05c-44.1,22.74-53.67-14.44-49.15-50.71h-14.46v-14.13h14.46v-14.91l20.49-2.47v17.38h22.18l-2.01,14.13h-20.17c.55,15.21-6.32,53.87,21.85,37.67l6.81,13.03Z"/>
    </g>
  </g>
</svg>